<svg xmlns="http://www.w3.org/2000/svg" width="33.373" height="31.5" viewBox="0 0 33.373 31.5">
  <path id="Icon_ionic-logo-facebook" data-name="Icon ionic-logo-facebook" d="M36.031,4.5H6.342A1.794,1.794,0,0,0,4.5,6.239V34.261A1.794,1.794,0,0,0,6.342,36H21.187V23.532H17.2V18.938h3.989v-3.4c0-4.069,2.99-6.284,6.84-6.284,1.842,0,3.824.131,4.285.189V13.7H29.243c-2.095,0-2.494.935-2.494,2.313v2.929h4.989l-.652,4.594H26.749V36h9.282a1.794,1.794,0,0,0,1.842-1.739V6.239A1.794,1.794,0,0,0,36.031,4.5Z" transform="translate(-4.5 -4.5)"/>
</svg>
