<svg xmlns="http://www.w3.org/2000/svg" width="35.076" height="36" viewBox="0 0 35.076 36">
  <path id="Icon_awesome-behance-square" data-name="Icon awesome-behance-square" d="M14.6,23.223c0,1.551-1.1,2.041-2.443,2.041H8.628V21.013h3.6C13.686,21.021,14.6,21.64,14.6,23.223ZM14,16.61c0-1.422-1.073-1.76-2.263-1.76h-3.1v3.6h3.343C13.161,18.45,14,17.92,14,16.61Zm10.358,1.864a2.36,2.36,0,0,0-2.482,2.387h4.87C26.612,19.374,25.861,18.474,24.357,18.474ZM35.076,6.107V34.393a3.81,3.81,0,0,1-3.758,3.857H3.758A3.81,3.81,0,0,1,0,34.393V6.107A3.81,3.81,0,0,1,3.758,2.25h27.56A3.81,3.81,0,0,1,35.076,6.107Zm-13.8,8.438h6.091V13.026H21.273Zm-3.367,8.863a3.993,3.993,0,0,0-2.74-4.146,3,3,0,0,0,2.051-2.973c0-3.07-2.231-3.817-4.807-3.817H5.324V27.9h7.289C15.346,27.884,17.906,26.542,17.906,23.408Zm11.846-1.189c0-3.3-1.887-6.059-5.293-6.059-3.32,0-5.567,2.555-5.567,5.914,0,3.479,2.137,5.866,5.567,5.866a4.868,4.868,0,0,0,5.1-3.761H26.918a2.47,2.47,0,0,1-2.364,1.454c-1.754,0-2.67-1.053-2.67-2.837h7.845C29.736,22.613,29.752,22.412,29.752,22.219Z" transform="translate(0 -2.25)" fill="rgba(51,51,51,0.78)"/>
</svg>
