<svg xmlns="http://www.w3.org/2000/svg" width="36" height="36" viewBox="0 0 36 36">
  <path id="Icon_awesome-feather-alt" data-name="Icon awesome-feather-alt" d="M36,0C32.359.25,6.781,2.686,4.993,20.223c-.217,1.875-.34,3.757-.421,5.642L17.149,13.3a1.126,1.126,0,0,1,1.593,1.591L.5,33.119a1.688,1.688,0,0,0,2.389,2.386L6.9,31.493a79.479,79.479,0,0,0,8.857-.517A16.773,16.773,0,0,0,25.08,27h-7.1L28.3,23.563a27.9,27.9,0,0,0,2.141-3.313H24.739l7.491-3.741A57.389,57.389,0,0,0,36,0Z" transform="translate(0)" fill="rgba(51,51,51,0.78)"/>
</svg>
